<svg width="95" height="66" viewBox="0 0 95 66" fill="none" xmlns="http://www.w3.org/2000/svg">
<path fill-rule="evenodd" clip-rule="evenodd" d="M40.9092 2.1C40.9092 0.9402 41.8494 0 43.0092 0C44.169 0 45.1092 0.9402 45.1092 2.1V63.2571C45.1092 64.4169 44.169 65.3571 43.0092 65.3571C41.8494 65.3571 40.9092 64.4169 40.9092 63.2571V2.1ZM34.8276 14.5551C33.6678 14.5551 32.7276 15.4953 32.7276 16.6551V48.7023C32.7276 49.8621 33.6678 50.8023 34.8276 50.8023C35.9874 50.8023 36.9276 49.8621 36.9276 48.7023V16.6551C36.9276 15.4953 35.9874 14.5551 34.8276 14.5551ZM24.5454 22.7976C24.5454 21.6378 25.4856 20.6976 26.6454 20.6976C27.8055 20.6976 28.7454 21.6375 28.7454 22.7976V42.5601C28.7454 43.7199 27.8052 44.6601 26.6454 44.6601C25.4856 44.6601 24.5454 43.7199 24.5454 42.5601V22.7976ZM18.4638 24.1692C17.304 24.1692 16.3638 25.1094 16.3638 26.2692V39.0882C16.3638 40.248 17.304 41.1882 18.4638 41.1882C19.6236 41.1882 20.5638 40.248 20.5638 39.0882V26.2692C20.5638 25.1094 19.6236 24.1692 18.4638 24.1692ZM0 29.2071C0 28.0473 0.9402 27.1071 2.1 27.1071C3.2598 27.1071 4.2 28.047 4.2 29.2071V36.1506C4.2 37.3104 3.2598 38.2506 2.1 38.2506C0.9402 38.2506 0 37.3104 0 36.1506V29.2071ZM8.1819 29.2071C8.1819 28.0473 9.1221 27.1071 10.2819 27.1071C11.442 27.1071 12.3819 28.047 12.3819 29.2071V36.1506C12.3819 37.3104 11.4417 38.2506 10.2819 38.2506C9.1221 38.2506 8.1819 37.3104 8.1819 36.1506V29.2071ZM51.1911 5.2077C50.0313 5.2077 49.0911 6.1479 49.0911 7.3077V58.0497C49.0911 59.2095 50.0313 60.1497 51.1911 60.1497C52.3509 60.1497 53.2911 59.2095 53.2911 58.0497V7.3077C53.2911 6.1476 52.3509 5.2077 51.1911 5.2077ZM57.2727 17.7231C57.2727 16.5633 58.2129 15.6231 59.3727 15.6231C60.5325 15.6231 61.4727 16.5633 61.4727 17.7231V47.634C61.4727 48.7938 60.5325 49.734 59.3727 49.734C58.2129 49.734 57.2727 48.7938 57.2727 47.634V17.7231ZM67.5549 21.8988C66.3951 21.8988 65.4549 22.839 65.4549 23.9988V41.358C65.4549 42.5178 66.3951 43.458 67.5549 43.458C68.7147 43.458 69.6549 42.5178 69.6549 41.358V23.9988C69.6549 22.839 68.7147 21.8988 67.5549 21.8988ZM73.6368 26.67C73.6368 25.5102 74.577 24.57 75.7368 24.57C76.8966 24.57 77.8368 25.5102 77.8368 26.67V38.6877C77.8368 39.8475 76.8966 40.7877 75.7368 40.7877C74.577 40.7877 73.6368 39.8475 73.6368 38.6877V26.67ZM83.9184 27.1071C82.7586 27.1071 81.8184 28.0473 81.8184 29.2071V36.1506C81.8184 37.3104 82.7586 38.2506 83.9184 38.2506C85.0782 38.2506 86.0184 37.3104 86.0184 36.1506V29.2071C86.0184 28.047 85.0782 27.1071 83.9184 27.1071ZM90 29.2071C90 28.0473 90.9402 27.1071 92.1 27.1071C93.2598 27.1071 94.2 28.047 94.2 29.2071V36.1506C94.2 37.3104 93.2598 38.2506 92.1 38.2506C90.9402 38.2506 90 37.3104 90 36.1506V29.2071Z" fill="#FF6565"/>
</svg>
